<?xml version="1.0" encoding="utf-8"?>
<!-- Generator: Adobe Illustrator 16.0.4, SVG Export Plug-In . SVG Version: 6.00 Build 0)  -->
<!DOCTYPE svg PUBLIC "-//W3C//DTD SVG 1.1//EN" "http://www.w3.org/Graphics/SVG/1.1/DTD/svg11.dtd">
<svg version="1.1" id="Layer_1" xmlns="http://www.w3.org/2000/svg" xmlns:xlink="http://www.w3.org/1999/xlink" x="0px" y="0px"
	 width="280.486px" height="273.596px" viewBox="0 0 280.486 273.596" enable-background="new 0 0 280.486 273.596"
	 xml:space="preserve">
<g>
	<path fill-rule="evenodd" clip-rule="evenodd" fill="#FFFFFF" d="M140.724-0.021C63.55-0.021,0.967,62.549,0.967,139.739
		c0,61.749,40.045,114.137,95.576,132.617c6.984,1.293,9.547-3.033,9.547-6.724c0-3.332-0.126-14.343-0.19-26.021
		c-38.878,8.455-47.083-16.49-47.083-16.49c-6.36-16.153-15.518-20.449-15.518-20.449c-12.684-8.675,0.954-8.496,0.954-8.496
		c14.035,0.985,21.426,14.403,21.426,14.403c12.462,21.365,32.695,15.188,40.669,11.617c1.256-9.031,4.877-15.199,8.873-18.688
		c-31.041-3.533-63.677-15.519-63.677-69.069c0-15.258,5.46-27.726,14.402-37.514c-1.451-3.521-6.233-17.735,1.356-36.987
		c0,0,11.734-3.754,38.44,14.327c11.151-3.097,23.107-4.649,34.982-4.704c11.879,0.054,23.844,1.607,35.014,4.704
		c26.674-18.081,38.396-14.327,38.396-14.327c7.607,19.252,2.82,33.466,1.369,36.987c8.964,9.789,14.384,22.256,14.384,37.514
		c0,53.68-32.695,65.498-63.817,68.958c5.013,4.338,9.479,12.842,9.479,25.881c0,18.7-0.158,33.75-0.158,38.354
		c0,3.72,2.513,8.077,9.596,6.706c55.505-18.502,95.5-70.871,95.5-132.6C280.486,62.549,217.912-0.021,140.724-0.021z"/>
	<path fill="#FFFFFF" d="M53.899,200.642c-0.307,0.696-1.401,0.904-2.396,0.428c-1.013-0.457-1.582-1.404-1.252-2.1
		c0.298-0.715,1.392-0.913,2.404-0.437C53.674,198.99,54.252,199.946,53.899,200.642L53.899,200.642z M52.181,199.367"/>
	<path fill="#FFFFFF" d="M59.563,206.957c-0.669,0.616-1.971,0.329-2.857-0.646c-0.913-0.975-1.084-2.278-0.407-2.904
		c0.687-0.617,1.948-0.328,2.866,0.646C60.078,205.038,60.26,206.33,59.563,206.957L59.563,206.957z M58.23,205.527"/>
	<path fill="#FFFFFF" d="M65.073,215.005c-0.859,0.597-2.26,0.038-3.124-1.205c-0.859-1.242-0.859-2.734,0.018-3.331
		c0.868-0.597,2.247-0.059,3.124,1.173C65.946,212.906,65.946,214.397,65.073,215.005L65.073,215.005z M65.073,215.005"/>
	<path fill="#FFFFFF" d="M72.622,222.782c-0.769,0.845-2.4,0.617-3.594-0.536c-1.22-1.125-1.56-2.726-0.795-3.57
		c0.777-0.846,2.418-0.608,3.621,0.535C73.07,220.337,73.436,221.946,72.622,222.782L72.622,222.782z M72.622,222.782"/>
	<path fill="#FFFFFF" d="M83.037,227.298c-0.339,1.094-1.912,1.591-3.494,1.125c-1.582-0.479-2.613-1.761-2.296-2.865
		c0.33-1.104,1.908-1.621,3.503-1.123C82.327,224.911,83.362,226.184,83.037,227.298L83.037,227.298z M83.037,227.298"/>
	<path fill="#FFFFFF" d="M94.473,228.134c0.041,1.153-1.302,2.108-2.965,2.129c-1.668,0.039-3.024-0.895-3.042-2.029
		c0-1.164,1.315-2.108,2.983-2.138C93.113,226.064,94.473,226.99,94.473,228.134L94.473,228.134z M94.473,228.134"/>
	<path fill="#FFFFFF" d="M105.118,226.323c0.199,1.124-0.958,2.278-2.608,2.586c-1.623,0.298-3.124-0.397-3.332-1.512
		c-0.199-1.153,0.977-2.308,2.595-2.606C103.427,224.504,104.906,225.18,105.118,226.323L105.118,226.323z M105.118,226.323"/>
</g>
</svg>
